 <svg  version="1.0" xmlns="http://www.w3.org/2000/svg"  width="398.000000pt" height="429.000000pt" viewBox="0 0 398.000000 429.000000"  preserveAspectRatio="xMidYMid meet">  <g transform="translate(0.000000,429.000000) scale(0.050000,-0.050000)" fill="#26a269" stroke="none"> <path d="M921 8363 c-95 -91 -114 -160 -130 -483 -13 -259 -8 -303 78 -710 51 -238 71 -300 229 -713 l82 -212 -108 -228 c-142 -299 -178 -446 -184 -757 -2 -137 -15 -308 -28 -379 -46 -256 -9 -889 70 -1171 36 -132 72 -273 79 -313 18 -110 595 -1201 629 -1191 7 1 83 -27 169 -63 203 -85 613 -88 613 -4 0 41 -222 227 -244 205 -42 -42 -56 -26 -56 63 0 109 -13 121 -75 72 -67 -52 -76 -50 -107 25 l-26 64 -23 -57 c-24 -59 -49 -34 -49 51 0 35 -39 57 -40 23 -1 -8 -19 -37 -41 -65 l-40 -50 12 110 12 110 -56 -85 c-59 -87 -98 -112 -79 -50 5 19 16 71 23 115 l14 80 -59 -55 c-79 -74 -86 -70 -73 42 12 96 11 98 -56 121 l-67 24 50 38 50 39 -55 1 c-67 0 -67 -2 -5 120 66 131 69 128 -80 114 -154 -15 -158 -6 -40 93 101 85 110 107 45 118 -41 8 -39 11 20 34 81 31 82 46 0 84 l-64 31 66 35 67 34 -67 59 -67 60 101 -13 101 -12 20 77 21 76 38 -77 c33 -66 46 -75 94 -68 42 6 76 -9 138 -62 l82 -70 -15 125 c-23 203 -32 220 -140 278 -126 68 -134 108 -41 203 l73 75 -90 47 -90 48 39 63 c51 82 49 92 -13 63 -43 -19 -55 -18 -70 9 -9 17 -40 37 -68 44 -36 9 -50 26 -50 62 0 30 -17 58 -45 72 -25 13 -52 36 -61 51 -9 15 -38 27 -65 27 -30 0 -49 11 -49 30 0 17 -14 30 -32 30 -32 0 -31 3 6 95 6 15 -6 25 -30 25 -119 0 -47 -185 151 -388 266 -272 265 -271 265 -453 l0 -157 -137 -80 c-142 -83 -169 -119 -223 -292 -36 -114 -35 -113 -115 -79 -95 39 -91 32 -64 132 54 200 237 390 398 411 123 17 106 50 -168 316 -279 271 -283 280 -261 517 8 90 17 303 18 473 4 345 15 398 141 680 114 254 109 409 -19 540 -69 71 -76 86 -55 120 37 58 31 125 -33 384 -67 271 -65 266 -145 308 -60 31 -61 33 -47 145 55 441 441 551 795 226 86 -79 64 -181 -131 -603 -194 -424 -170 -796 45 -681 36 20 47 42 122 246 37 102 57 126 175 209 230 160 274 212 360 424 48 116 48 117 -21 151 -25 12 -76 66 -115 120 -38 53 -149 179 -245 278 -96 100 -175 188 -175 196 0 34 -308 257 -404 292 -200 74 -267 72 -355 -12z m1047 -940 c76 -81 41 -163 -126 -290 -141 -107 -146 -97 -60 120 104 261 101 258 186 170z m-808 -3273 c0 -14 -13 -36 -30 -50 -26 -21 -30 -14 -30 50 0 64 4 71 30 50 17 -14 30 -36 30 -50z"/> <path d="M3946 8360 c-170 -39 -295 -126 -552 -383 -141 -142 -263 -257 -270 -257 -8 0 -53 -49 -101 -108 -47 -60 -113 -120 -147 -133 l-60 -26 7 -149 c9 -167 22 -184 233 -307 151 -87 214 -162 318 -377 51 -104 95 -193 98 -197 8 -10 214 41 234 58 20 16 -29 299 -94 552 -39 154 -65 209 -160 338 -316 433 168 663 598 285 169 -149 206 -271 102 -332 -59 -35 -72 -57 -92 -157 -13 -64 -41 -188 -62 -276 -21 -87 -38 -218 -38 -290 0 -84 -15 -170 -41 -239 -59 -155 -55 -299 13 -502 49 -148 57 -201 58 -412 l1 -242 74 -92 c101 -123 96 -262 -14 -353 -19 -16 -31 -58 -31 -113 0 -85 -2 -88 -61 -88 l-62 0 43 -60 43 -60 -102 0 -102 0 31 -61 c40 -76 26 -99 -61 -99 -85 0 -93 29 70 -259 l139 -246 30 73 c36 88 42 88 83 11 l31 -61 41 51 c43 55 77 51 77 -9 0 -54 26 -63 119 -43 95 22 99 14 28 -60 l-54 -56 68 -29 69 -28 -65 -37 c-83 -47 -82 -62 5 -78 74 -14 77 -49 4 -50 -37 0 -25 -17 66 -99 l110 -99 -135 0 c-153 -1 -153 -2 -86 -111 65 -105 64 -127 -4 -114 l-55 9 48 -51 47 -52 -55 -25 c-51 -24 -54 -31 -43 -121 13 -109 9 -112 -62 -56 -66 52 -73 43 -45 -60 31 -115 14 -119 -61 -17 l-63 87 13 -110 13 -110 -40 50 c-23 28 -41 57 -42 66 -1 54 -40 -21 -40 -78 0 -42 -8 -65 -20 -58 -11 7 -20 30 -20 51 0 22 -9 39 -20 39 -11 0 -20 -12 -20 -26 0 -68 -51 -102 -102 -67 -68 48 -78 42 -78 -46 0 -85 -26 -117 -68 -82 -21 17 -39 5 -81 -49 -72 -95 -149 -166 -217 -203 -73 -38 -47 -74 104 -141 255 -113 527 -70 642 103 16 25 139 127 273 227 l243 181 13 -69 c16 -84 16 -84 98 6 l67 73 56 -123 c60 -135 62 -136 119 -93 56 42 62 38 89 -53 20 -66 32 -80 63 -72 30 8 41 -4 51 -58 10 -57 24 -71 88 -90 65 -20 79 -35 96 -101 23 -92 25 -91 -89 -24 l-91 53 52 -103 c44 -86 47 -103 21 -103 -37 0 -37 0 31 -115 34 -58 60 -81 80 -73 81 31 281 48 580 49 312 2 619 20 890 54 l120 15 -80 50 -80 49 110 11 110 10 -90 34 c-49 19 -126 43 -170 53 l-80 17 75 15 c41 9 70 24 63 33 -20 33 -156 93 -243 107 -175 29 -95 60 195 76 132 7 38 57 -134 70 -198 16 -146 64 71 65 220 0 53 96 -177 101 l-130 2 70 31 c290 128 775 61 948 -132 42 -47 43 -45 -28 -75 l-50 -21 65 -33 c68 -36 86 -73 35 -73 -41 0 -38 -32 7 -64 98 -70 100 -144 2 -116 -108 31 -113 24 -34 -41 91 -75 94 -99 15 -99 l-60 0 45 -45 45 -45 -260 -13 c-304 -15 -270 -7 -270 -57 0 -109 181 -153 410 -101 109 25 213 155 277 346 29 86 73 12 73 -124 0 -1039 -2867 -1734 -5200 -1261 -1964 398 -2615 1337 -1421 2050 248 148 338 326 113 223 -1015 -464 -1148 -1280 -300 -1845 1875 -1249 6456 -834 6937 629 212 642 -702 1375 -2008 1611 l-69 13 59 -63 c65 -67 165 -125 259 -146 431 -100 831 -297 691 -342 -22 -7 -57 -34 -79 -61 -46 -59 -216 -87 -533 -88 -288 -1 -323 38 -369 409 -102 822 -419 1395 -903 1627 -327 158 -427 258 -544 546 -60 150 -89 196 -144 232 l-68 45 12 185 c11 175 8 197 -63 415 -95 292 -91 396 31 713 79 206 109 313 156 567 11 61 36 165 56 232 46 161 18 768 -39 855 -64 97 -172 140 -288 113z m74 -342 c0 -45 -7 -78 -15 -75 -8 4 -49 20 -90 36 -85 33 -97 74 -30 100 103 42 135 28 135 -61z m-716 -766 c67 -110 96 -180 96 -229 l0 -71 -83 84 c-45 46 -126 112 -180 146 -113 72 -123 117 -42 189 79 70 102 57 209 -119z m1236 -2677 c0 -96 88 -197 242 -277 310 -161 547 -492 678 -943 33 -117 79 -252 100 -299 22 -47 40 -117 40 -156 3 -192 85 -392 165 -404 67 -9 104 -166 74 -322 -21 -115 -21 -117 42 -189 196 -223 186 -430 -16 -325 -51 27 -127 42 -232 47 -185 8 -206 23 -174 121 41 123 13 179 -206 407 -388 403 -583 489 -818 359 -95 -52 -108 -39 -45 46 28 37 50 85 50 107 0 21 19 70 43 108 24 38 50 108 59 155 9 47 39 119 67 160 63 93 63 107 3 258 -27 67 -55 174 -63 236 -21 181 -104 247 -241 195 l-54 -20 13 155 c22 253 84 445 182 561 52 62 91 70 91 20z m-434 -281 c13 -34 -38 -154 -66 -154 -40 0 -44 58 -7 119 39 66 57 75 73 35z m-17 -1936 c-28 -61 -229 -216 -298 -229 -228 -43 -96 114 189 223 120 47 127 47 109 6z m2211 -245 c0 -43 22 -97 60 -150 79 -109 77 -116 -35 -129 -116 -13 -107 -18 -205 126 -122 180 -113 220 50 220 l130 0 0 -67z"/> <path d="M2357 7466 c-53 -8 -53 -9 -22 -64 30 -53 30 -60 -13 -129 -71 -115 -102 -264 -102 -499 0 -411 -272 -663 -546 -506 -224 128 -303 110 -371 -82 -22 -64 -72 -192 -111 -286 -97 -233 -104 -302 -54 -507 50 -202 52 -264 12 -361 -36 -86 -37 -86 135 -19 151 59 164 76 73 94 -56 12 -61 18 -49 68 8 30 16 63 18 75 1 11 -22 23 -52 26 -65 8 -69 25 -15 74 51 46 51 70 -1 70 -33 0 -39 9 -29 40 10 33 4 40 -39 40 -60 0 -66 43 -24 182 39 130 280 656 296 646 7 -4 41 -57 75 -117 80 -143 122 -163 317 -154 71 3 269 221 440 484 110 170 117 215 65 418 -58 229 -22 326 111 292 82 -20 94 -73 67 -278 -31 -236 -19 -290 101 -484 329 -533 624 -593 858 -175 42 76 231 -212 345 -526 86 -237 85 -248 -14 -248 -62 0 -68 -4 -57 -47 9 -37 3 -50 -31 -59 -43 -11 -43 -12 17 -100 62 -90 63 -114 5 -114 -77 -1 -90 -33 -45 -109 56 -95 58 -91 -48 -91 -83 0 -89 -3 -70 -39 29 -53 27 -61 -19 -61 -58 0 -50 -22 37 -108 l78 -75 44 61 c41 58 46 60 90 31 107 -70 169 -72 150 -4 -10 34 -39 83 -64 110 -57 62 -61 396 -6 563 37 111 41 91 -100 561 -66 223 -88 253 -198 277 -122 26 -231 2 -333 -73 -267 -196 -577 130 -578 608 0 140 -28 303 -70 413 -10 25 10 51 77 98 50 36 87 72 81 81 -10 17 -328 19 -431 3z"/> <path d="M1841 6647 c-138 -176 -21 -350 168 -250 154 82 163 179 25 264 -87 53 -143 49 -193 -14z"/> <path d="M2963 6649 c-115 -96 -102 -172 42 -249 145 -76 257 -8 226 137 -35 157 -155 207 -268 112z"/> <path d="M2345 6076 c-72 -19 -118 -77 -137 -172 -21 -106 56 -168 92 -74 21 56 63 65 100 20 33 -39 11 -90 -38 -90 -49 0 -68 -29 -52 -79 7 -23 24 -35 40 -28 15 6 54 -5 87 -24 54 -32 61 -32 105 -2 26 18 68 33 94 33 65 0 54 87 -12 97 -56 8 -77 53 -44 93 37 45 79 36 100 -20 37 -97 112 -32 92 78 -24 125 -141 208 -242 172 -22 -8 -58 -8 -80 0 -22 7 -69 6 -105 -4z"/> <path d="M3071 5526 c-137 -159 -294 -184 -485 -77 l-87 49 -125 -59 c-198 -94 -336 -69 -459 84 -34 42 -65 74 -68 70 -10 -9 90 -250 127 -307 33 -49 186 -140 186 -110 0 63 58 93 78 40 62 -165 400 -177 523 -20 41 51 44 52 70 16 52 -72 146 10 245 215 101 209 100 219 -5 99z m-345 -227 c-44 -166 -277 -217 -399 -88 -93 99 -90 102 118 93 102 -4 208 2 235 13 28 11 51 21 53 22 2 0 -2 -17 -7 -40z"/> <path d="M2752 5098 c-160 -120 -340 -126 -492 -16 -95 69 -124 62 -76 -18 128 -212 576 -176 645 51 17 55 19 55 -77 -17z"/> <path d="M1645 2137 c-33 -33 -31 -114 5 -217 56 -157 41 -274 -47 -379 -365 -432 -138 -668 594 -618 353 24 474 108 526 364 24 122 46 135 137 83 109 -62 220 -6 220 110 0 59 2 60 100 60 l100 0 0 78 c0 171 -34 181 -127 35 -65 -102 -158 -193 -197 -193 -10 0 -85 63 -166 140 -214 202 -250 186 -202 -90 16 -92 21 -163 10 -167 -10 -3 -18 -37 -18 -75 0 -116 -46 -142 -283 -157 -553 -37 -752 -15 -726 79 3 11 11 45 18 76 7 31 66 114 131 184 65 70 124 150 131 177 36 143 -140 576 -206 510z"/> <path d="M4114 1846 c-22 -6 -32 -22 -26 -43 5 -18 20 -73 33 -123 45 -173 88 -233 178 -248 53 -8 81 -23 81 -42 0 -41 -58 -38 -107 5 -36 31 -36 28 5 -30 122 -177 31 -222 -448 -223 -509 -1 -540 11 -540 209 0 149 -6 154 -78 60 -80 -105 -67 -196 45 -318 100 -107 148 -120 487 -129 485 -13 541 5 679 217 l64 99 221 0 c393 0 558 46 601 167 28 78 -18 120 -65 59 -40 -51 -290 -86 -618 -86 -299 1 -313 14 -275 263 18 120 -98 200 -237 163z"/> </g> </svg> 